static_grf.mot
version=1
nRows=12
nColumns 19
inDegrees=yes
endheader
time	1_ground_force_vx	1_ground_force_vy	1_ground_force_vz	1_ground_force_px	1_ground_force_py	1_ground_force_pz	1_ground_torque_x	1_ground_torque_y	1_ground_torque_z	2_ground_force_vx	2_ground_force_vy	2_ground_force_vz	2_ground_force_px	2_ground_force_py	2_ground_force_pz	2_ground_torque_x	2_ground_torque_y	2_ground_torque_z
            1.501500	            2.209370	          276.403587	          -11.843816	           -0.330151	            0.006287	           -0.424463	            0.001425	            0.178320	           -0.007641	           -2.785569	          280.037473	           13.811516	           -0.313622	            0.005195	           -0.653749	            0.002579	           -0.259247	           -0.012786
            1.502000	            2.439708	          275.861034	          -11.434001	           -0.329698	            0.006288	           -0.424529	            0.001274	            0.144024	           -0.005970	           -2.881202	          280.589116	           13.954312	           -0.313131	            0.005198	           -0.654238	            0.002357	           -0.229499	           -0.011413
            1.502500	            2.347501	          276.222334	          -11.615651	           -0.329522	            0.006288	           -0.424473	            0.001064	            0.125226	           -0.005266	           -2.742604	          281.141711	           14.050079	           -0.313035	            0.005200	           -0.654523	            0.002459	           -0.252094	           -0.012598
            1.503000	            2.027253	          275.139892	          -11.436069	           -0.329616	            0.006290	           -0.425113	            0.000615	            0.083407	           -0.003467	           -2.786296	          280.222116	           13.671389	           -0.313449	            0.005195	           -0.653601	            0.001688	           -0.169728	           -0.008281
            1.503500	            2.210314	          276.221718	          -11.477742	           -0.329691	            0.006287	           -0.424454	            0.000430	            0.053792	           -0.002235	           -2.926099	          280.036799	           13.858504	           -0.313430	            0.005196	           -0.654018	            0.002069	           -0.198032	           -0.009800
            1.504000	            2.118711	          275.140303	          -11.528008	           -0.330147	            0.006291	           -0.425399	            0.000745	            0.096719	           -0.004052	           -2.738699	          280.037475	           13.858424	           -0.313223	            0.005196	           -0.653750	            0.002235	           -0.228561	           -0.011311
            1.504500	            1.980707	          277.123426	          -11.565020	           -0.329554	            0.006284	           -0.423714	            0.000080	            0.011233	           -0.000469	           -3.022519	          280.773586	           13.720388	           -0.313020	            0.005198	           -0.654022	            0.001873	           -0.174020	           -0.008504
            1.505000	            2.164944	          275.500057	          -11.343152	           -0.329751	            0.006289	           -0.424741	            0.000196	            0.024914	           -0.001026	           -2.930751	          281.325845	           13.863104	           -0.312988	            0.005200	           -0.654574	            0.002310	           -0.221761	           -0.010928
            1.505500	            1.935322	          275.861134	          -11.478605	           -0.330140	            0.006287	           -0.424336	            0.000023	            0.003328	           -0.000138	           -2.880475	          280.404412	           14.094439	           -0.312982	            0.005198	           -0.654120	            0.002355	           -0.229265	           -0.011524
            1.506000	            2.210850	          276.401031	          -11.247689	           -0.329765	            0.006287	           -0.424308	            0.000406	            0.050800	           -0.002067	           -2.786172	          280.221112	           13.952958	           -0.313304	            0.005197	           -0.654069	            0.002280	           -0.229351	           -0.011420
            1.506500	            2.210461	          276.041286	          -11.432659	           -0.329553	            0.006287	           -0.424355	            0.000232	            0.028927	           -0.001198	           -2.831090	          279.669023	           13.810222	           -0.313671	            0.005193	           -0.653446	            0.002061	           -0.203638	           -0.010056
            1.507000	            1.981132	          276.041439	          -11.477946	           -0.329732	            0.006288	           -0.424498	           -0.000088	           -0.012223	            0.000508	           -2.974237	          280.404576	           13.953694	           -0.313257	            0.005197	           -0.653986	            0.002068	           -0.194928	           -0.009700
